<svg version="1.1" xmlns="http://www.w3.org/2000/svg" xmlns:xlink="http://www.w3.org/1999/xlink" width="4260.2932" height="4021.55446" viewBox="0,0,4260.2932,4021.55446"><g transform="translate(1807.89435,1824.77122)"><g stroke-miterlimit="10"><path d="M315.60049,1827.16987v-3294.33974h8.79903v3294.33974z" fill="#ff0000" stroke="#ff0000" stroke-width="12.5"/><path d="M-1327.16987,175.60049h3294.33974v8.79903h-3294.33974z" fill="#ff0000" stroke="#ff0000" stroke-width="12.5"/><path d="M-847.83591,1341.61406l2329.44997,-2329.44997l6.22185,6.22185l-2329.44997,2329.44997z" fill="#ff0000" stroke="#ff0000" stroke-width="12.5"/><path d="M-841.61406,-987.83591l2329.44997,2329.44997l-6.22185,6.22185l-2329.44997,-2329.44997z" fill="#ff0000" stroke="#ff0000" stroke-width="12.5"/><path d="M76.86175,1649.99269v-3294.33974h8.79903v3294.33974z" fill="#ff0000" stroke="#ff0000" stroke-width="12.5"/><path d="M-1565.90861,-1.57669h3294.33974v8.79903h-3294.33974z" fill="#ff0000" stroke="#ff0000" stroke-width="12.5"/><path d="M-1086.57465,1164.43688l2329.44997,-2329.44997l6.22185,6.22185l-2329.44997,2329.44997z" fill="#ff0000" stroke="#ff0000" stroke-width="12.5"/><path d="M-1080.3528,-1165.01309l2329.44997,2329.44997l-6.22185,6.22185l-2329.44997,-2329.44997z" fill="#ff0000" stroke="#ff0000" stroke-width="12.5"/><path d="M554.33923,2002.84555v-3294.33974h8.79903v3294.33974z" fill="#ff0000" stroke="#ff0000" stroke-width="12.5"/><path d="M-1088.43113,351.27617h3294.33974v8.79903h-3294.33974z" fill="#ff0000" stroke="#ff0000" stroke-width="12.5"/><path d="M-609.09717,1517.28974l2329.44997,-2329.44997l6.22185,6.22185l-2329.44997,2329.44997z" fill="#ff0000" stroke="#ff0000" stroke-width="12.5"/><path d="M-602.87532,-812.16023l2329.44997,2329.44997l-6.22185,6.22185l-2329.44997,-2329.44997z" fill="#ff0000" stroke="#ff0000" stroke-width="12.5"/><path d="M555.84073,1652.9957v-3294.33974h8.79903v3294.33974z" fill="#ff0000" stroke="#ff0000" stroke-width="12.5"/><path d="M-1086.92963,1.42632h3294.33974v8.79903h-3294.33974z" fill="#ff0000" stroke="#ff0000" stroke-width="12.5"/><path d="M-607.59567,1167.43989l2329.44997,-2329.44997l6.22185,6.22185l-2329.44997,2329.44997z" fill="#ff0000" stroke="#ff0000" stroke-width="12.5"/><path d="M-601.37382,-1162.01008l2329.44997,2329.44997l-6.22185,6.22185l-2329.44997,-2329.44997z" fill="#ff0000" stroke="#ff0000" stroke-width="12.5"/><path d="M317.10199,1475.81852v-3294.33974h8.79903v3294.33974z" fill="#ff0000" stroke="#ff0000" stroke-width="12.5"/><path d="M-1325.66837,-175.75086h3294.33974v8.79903h-3294.33974z" fill="#ff0000" stroke="#ff0000" stroke-width="12.5"/><path d="M-846.33441,990.26271l2329.44997,-2329.44997l6.22185,6.22185l-2329.44997,2329.44997z" fill="#ff0000" stroke="#ff0000" stroke-width="12.5"/><path d="M-840.11256,-1339.18726l2329.44997,2329.44997l-6.22185,6.22185l-2329.44997,-2329.44997z" fill="#ff0000" stroke="#ff0000" stroke-width="12.5"/><path d="M794.57947,1828.67138v-3294.33974h8.79903v3294.33974z" fill="#ff0000" stroke="#ff0000" stroke-width="12.5"/><path d="M-848.19089,177.102h3294.33974v8.79903h-3294.33974z" fill="#ff0000" stroke="#ff0000" stroke-width="12.5"/><path d="M-368.85693,1343.11557l2329.44997,-2329.44997l6.22185,6.22185l-2329.44997,2329.44997z" fill="#ff0000" stroke="#ff0000" stroke-width="12.5"/><path d="M-362.63508,-986.3344l2329.44997,2329.44997l-6.22185,6.22185l-2329.44997,-2329.44997z" fill="#ff0000" stroke="#ff0000" stroke-width="12.5"/><path d="M81.36626,1996.83954v-3294.33974h8.79903v3294.33974z" fill="#ff0000" stroke="#ff0000" stroke-width="12.5"/><path d="M-1561.4041,345.27016h3294.33974v8.79903h-3294.33974z" fill="#ff0000" stroke="#ff0000" stroke-width="12.5"/><path d="M-1082.07014,1511.28373l2329.44997,-2329.44997l6.22185,6.22185l-2329.44997,2329.44997z" fill="#ff0000" stroke="#ff0000" stroke-width="12.5"/><path d="M-1075.84829,-818.16624l2329.44997,2329.44997l-6.22185,6.22185l-2329.44997,-2329.44997z" fill="#ff0000" stroke="#ff0000" stroke-width="12.5"/><path d="M-157.37248,1819.66236v-3294.33974h8.79903v3294.33974z" fill="#ff0000" stroke="#ff0000" stroke-width="12.5"/><path d="M-1800.14284,168.09298h3294.33974v8.79903h-3294.33974z" fill="#ff0000" stroke="#ff0000" stroke-width="12.5"/><path d="M-1320.80888,1334.10655l2329.44997,-2329.44997l6.22185,6.22185l-2329.44997,2329.44997z" fill="#ff0000" stroke="#ff0000" stroke-width="12.5"/><path d="M-1314.58703,-995.34342l2329.44997,2329.44997l-6.22185,6.22185l-2329.44997,-2329.44997z" fill="#ff0000" stroke="#ff0000" stroke-width="12.5"/><path d="M320.105,2172.51522v-3294.33974h8.79903v3294.33974z" fill="#ff0000" stroke="#ff0000" stroke-width="12.5"/><path d="M-1322.66536,520.94584h3294.33974v8.79903h-3294.33974z" fill="#ff0000" stroke="#ff0000" stroke-width="12.5"/><path d="M-843.3314,1686.95941l2329.44997,-2329.44997l6.22185,6.22185l-2329.44997,2329.44997z" fill="#ff0000" stroke="#ff0000" stroke-width="12.5"/><path d="M-837.10955,-642.49056l2329.44997,2329.44997l-6.22185,6.22185l-2329.44997,-2329.44997z" fill="#ff0000" stroke="#ff0000" stroke-width="12.5"/><path d="M79.86475,1660.50321v-3294.33974h8.79903v3294.33974z" fill="#ff0000" stroke="#ff0000" stroke-width="12.5"/><path d="M-1562.90561,8.93383h3294.33974v8.79903h-3294.33974z" fill="#ff0000" stroke="#ff0000" stroke-width="12.5"/><path d="M-1083.57165,1174.9474l2329.44997,-2329.44997l6.22185,6.22185l-2329.44997,2329.44997z" fill="#ff0000" stroke="#ff0000" stroke-width="12.5"/><path d="M-1077.3498,-1154.50257l2329.44997,2329.44997l-6.22185,6.22185l-2329.44997,-2329.44997z" fill="#ff0000" stroke="#ff0000" stroke-width="12.5"/><path d="M-158.87399,1483.32603v-3294.33974h8.79903v3294.33974z" fill="#ff0000" stroke="#ff0000" stroke-width="12.5"/><path d="M-1801.64435,-168.24335h3294.33974v8.79903h-3294.33974z" fill="#ff0000" stroke="#ff0000" stroke-width="12.5"/><path d="M-1322.31039,997.77022l2329.44997,-2329.44997l6.22185,6.22185l-2329.44997,2329.44997z" fill="#ff0000" stroke="#ff0000" stroke-width="12.5"/><path d="M-1316.08854,-1331.67975l2329.44997,2329.44997l-6.22185,6.22185l-2329.44997,-2329.44997z" fill="#ff0000" stroke="#ff0000" stroke-width="12.5"/><path d="M318.60349,1836.17889v-3294.33974h8.79903v3294.33974z" fill="#ff0000" stroke="#ff0000" stroke-width="12.5"/><path d="M-1324.16687,184.60951h3294.33974v8.79903h-3294.33974z" fill="#ff0000" stroke="#ff0000" stroke-width="12.5"/><path d="M-844.83291,1350.62308l2329.44997,-2329.44997l6.22185,6.22185l-2329.44997,2329.44997z" fill="#ff0000" stroke="#ff0000" stroke-width="12.5"/><path d="M-838.61106,-978.82689l2329.44997,2329.44997l-6.22185,6.22185l-2329.44997,-2329.44997z" fill="#ff0000" stroke="#ff0000" stroke-width="12.5"/><path d="M552.83773,2014.85756v-3294.33974h8.79903v3294.33974z" fill="#ff0000" stroke="#ff0000" stroke-width="12.5"/><path d="M-1089.93263,363.28818h3294.33974v8.79903h-3294.33974z" fill="#ff0000" stroke="#ff0000" stroke-width="12.5"/><path d="M-610.59867,1529.30175l2329.44997,-2329.44997l6.22185,6.22185l-2329.44997,2329.44997z" fill="#ff0000" stroke="#ff0000" stroke-width="12.5"/><path d="M-604.37682,-800.14822l2329.44997,2329.44997l-6.22185,6.22185l-2329.44997,-2329.44997z" fill="#ff0000" stroke="#ff0000" stroke-width="12.5"/><path d="M314.09899,1837.68038v-3294.33974h8.79903v3294.33974z" fill="#ff0000" stroke="#ff0000" stroke-width="12.5"/><path d="M-1328.67137,186.111h3294.33974v8.79903h-3294.33974z" fill="#ff0000" stroke="#ff0000" stroke-width="12.5"/><path d="M-849.33741,1352.12457l2329.44997,-2329.44997l6.22185,6.22185l-2329.44997,2329.44997z" fill="#ff0000" stroke="#ff0000" stroke-width="12.5"/><path d="M-843.11556,-977.3254l2329.44997,2329.44997l-6.22185,6.22185l-2329.44997,-2329.44997z" fill="#ff0000" stroke="#ff0000" stroke-width="12.5"/><path d="M791.57647,2190.53324v-3294.33974h8.79903v3294.33974z" fill="#ff0000" stroke="#ff0000" stroke-width="12.5"/><path d="M-851.19389,538.96386h3294.33974v8.79903h-3294.33974z" fill="#ff0000" stroke="#ff0000" stroke-width="12.5"/><path d="M-371.85993,1704.97743l2329.44997,-2329.44997l6.22185,6.22185l-2329.44997,2329.44997z" fill="#ff0000" stroke="#ff0000" stroke-width="12.5"/><path d="M-365.63808,-624.47254l2329.44997,2329.44997l-6.22185,6.22185l-2329.44997,-2329.44997z" fill="#ff0000" stroke="#ff0000" stroke-width="12.5"/><g stroke="#22242b" stroke-width="2"><path d="M242.81246,197.90716v-35.81432h154.37508v35.81432z" fill="#272d2d"/><path d="M300.40776,255.54354v-151.08708h39.18448v151.08708z" fill="#272d2d"/><path d="M352.20632,253.52767l-105.73398,-105.73398l41.32132,-41.32132l105.73398,105.73398z" fill="#232828"/><path d="M248.64965,211.25263l102.60295,-102.60295l40.09771,40.09771l-102.60295,102.60295z" fill="#232828"/><path d="M281.06555,180c0,-21.50289 17.43154,-38.93445 38.93445,-38.93445c21.50291,0 38.93445,17.43155 38.93445,38.93445c0,21.50289 -17.43154,38.93445 -38.93445,38.93445c-21.50291,0 -38.93445,-17.43155 -38.93445,-38.93445z" fill="#272d2d"/></g></g></g></svg>