<svg version="1.1" xmlns="http://www.w3.org/2000/svg" xmlns:xlink="http://www.w3.org/1999/xlink" width="3781.81722" height="3657.1926" viewBox="0,0,3781.81722,3657.1926"><g transform="translate(1570.90861,1649.34705)"><g stroke-miterlimit="10"><path d="M315.60049,1827.16988v-3294.33974h8.79903v3294.33974z" fill="#ff0000" stroke="#ff0000" stroke-width="10"/><path d="M-1327.16987,175.6005h3294.33974v8.79903h-3294.33974z" fill="#ff0000" stroke="#ff0000" stroke-width="10"/><path d="M-847.83591,1341.61407l2329.44997,-2329.44997l6.22185,6.22185l-2329.44997,2329.44997z" fill="#ff0000" stroke="#ff0000" stroke-width="10"/><path d="M-841.61406,-987.8359l2329.44997,2329.44997l-6.22185,6.22185l-2329.44997,-2329.44997z" fill="#ff0000" stroke="#ff0000" stroke-width="10"/><path d="M76.86175,1649.9927v-3294.33974h8.79903v3294.33974z" fill="#ff0000" stroke="#ff0000" stroke-width="10"/><path d="M-1565.90861,-1.57668h3294.33974v8.79903h-3294.33974z" fill="#ff0000" stroke="#ff0000" stroke-width="10"/><path d="M-1086.57465,1164.43689l2329.44997,-2329.44997l6.22185,6.22185l-2329.44997,2329.44997z" fill="#ff0000" stroke="#ff0000" stroke-width="10"/><path d="M-1080.3528,-1165.01308l2329.44997,2329.44997l-6.22185,6.22185l-2329.44997,-2329.44997z" fill="#ff0000" stroke="#ff0000" stroke-width="10"/><path d="M554.33923,2002.84556v-3294.33974h8.79903v3294.33974z" fill="#ff0000" stroke="#ff0000" stroke-width="10"/><path d="M-1088.43113,351.27618h3294.33974v8.79903h-3294.33974z" fill="#ff0000" stroke="#ff0000" stroke-width="10"/><path d="M-609.09717,1517.28975l2329.44997,-2329.44997l6.22185,6.22185l-2329.44997,2329.44997z" fill="#ff0000" stroke="#ff0000" stroke-width="10"/><path d="M-602.87532,-812.16022l2329.44997,2329.44997l-6.22185,6.22185l-2329.44997,-2329.44997z" fill="#ff0000" stroke="#ff0000" stroke-width="10"/><g stroke="#22242b" stroke-width="2"><path d="M269.35,191.75057v-23.50114h101.3v23.50114z" fill="#272d2d"/><path d="M307.14369,229.57121v-99.14244h25.71262v99.14244z" fill="#272d2d"/><path d="M341.13359,228.24841l-69.38201,-69.38201l27.1148,-27.1148l69.38201,69.38201z" fill="#232828"/><path d="M273.18033,200.50778l67.32744,-67.32744l26.31188,26.31188l-67.32744,67.32744z" fill="#232828"/><path d="M294.45145,180c0,-14.11007 11.43847,-25.54855 25.54855,-25.54855c14.11008,0 25.54855,11.43848 25.54855,25.54855c0,14.11007 -11.43847,25.54855 -25.54855,25.54855c-14.11008,0 -25.54855,-11.43848 -25.54855,-25.54855z" fill="#272d2d"/></g></g></g></svg>