<svg version="1.1" xmlns="http://www.w3.org/2000/svg" xmlns:xlink="http://www.w3.org/1999/xlink" width="3299.33974" height="3299.33974" viewBox="0,0,3299.33974,3299.33974"><g transform="translate(1329.66987,1469.66987)"><g stroke-miterlimit="10"><path d="M315.60049,1827.16987v-3294.33974h8.79903v3294.33974z" fill="#ff0000" stroke="#ff0000" stroke-width="5"/><path d="M-1327.16987,175.60049h3294.33974v8.79903h-3294.33974z" fill="#ff0000" stroke="#ff0000" stroke-width="5"/><path d="M-847.83591,1341.61406l2329.44997,-2329.44997l6.22185,6.22185l-2329.44997,2329.44997z" fill="#ff0000" stroke="#ff0000" stroke-width="5"/><path d="M-841.61406,-987.83591l2329.44997,2329.44997l-6.22185,6.22185l-2329.44997,-2329.44997z" fill="#ff0000" stroke="#ff0000" stroke-width="5"/><path d="M309.93578,212.4055v-64.81101h20.12844v64.81101z" fill="#272d2d" stroke="#22242b" stroke-width="2"/><g stroke="#22242b" stroke-width="2"><path d="M280.35,189.19862v-18.39724h79.3v18.39724z" fill="#272d2d"/><path d="M309.93578,218.8055v-77.61101h20.12844v77.61101z" fill="#272d2d"/><path d="M336.54387,217.76998l-54.31385,-54.31385l21.2261,-21.2261l54.31385,54.31385z" fill="#232828"/><path d="M283.34847,196.05397l52.70549,-52.70549l20.59755,20.59755l-52.70549,52.70549z" fill="#232828"/><path d="M300,180c0,-11.04569 8.9543,-20 20,-20c11.0457,0 20,8.95431 20,20c0,11.04569 -8.9543,20 -20,20c-11.0457,0 -20,-8.95431 -20,-20z" fill="#272d2d"/></g></g></g></svg>