<svg version="1.1" xmlns="http://www.w3.org/2000/svg" xmlns:xlink="http://www.w3.org/1999/xlink" width="3294.33974" height="3294.33974" viewBox="0,0,3294.33974,3294.33974"><g transform="translate(1327.16987,1467.16987)"><g stroke-miterlimit="10"><path d="M315.60049,1827.16987v-3294.33974h8.79903v3294.33974z" fill="#ff0000" stroke="#000000" stroke-width="0"/><path d="M-1327.16987,175.60049h3294.33974v8.79903h-3294.33974z" fill="#ff0000" stroke="#000000" stroke-width="0"/><path d="M-847.83591,1341.61406l2329.44997,-2329.44997l6.22185,6.22185l-2329.44997,2329.44997z" fill="#ff0000" stroke="#000000" stroke-width="0"/><path d="M-841.61406,-987.83591l2329.44997,2329.44997l-6.22185,6.22185l-2329.44997,-2329.44997z" fill="#ff0000" stroke="#000000" stroke-width="0"/><g stroke="#22242b" stroke-width="2"><path d="M292.75,190.91667v-21.83333h54.5v21.83333z" fill="#272d2d"/><path d="M308.66667,209v-58h22.66667v58z" fill="#272d2d"/><path d="M334.79181,213.76998l-48.56178,-48.56178l18.97817,-18.97817l48.56178,48.56178z" fill="#232828"/><path d="M287.23003,194.35379l47.12376,-47.12376l18.41618,18.41618l-47.12376,47.12376z" fill="#232828"/><path d="M300,180c0,-11.04569 8.9543,-20 20,-20c11.0457,0 20,8.95431 20,20c0,11.04569 -8.9543,20 -20,20c-11.0457,0 -20,-8.95431 -20,-20z" fill="#272d2d"/></g></g></g></svg>