<svg version="1.1" xmlns="http://www.w3.org/2000/svg" xmlns:xlink="http://www.w3.org/1999/xlink" width="1987.08709" height="1652.1096" viewBox="0,0,1987.08709,1652.1096"><defs><radialGradient cx="648.2539" cy="437.6051" r="359.60961" gradientUnits="userSpaceOnUse" id="color-1"><stop offset="0" stop-color="#5d3c13"/><stop offset="1" stop-color="#5d3c13" stop-opacity="0"/></radialGradient><radialGradient cx="1.70734" cy="-151.31381" r="359.60961" gradientUnits="userSpaceOnUse" id="color-2"><stop offset="0" stop-color="#372611" stop-opacity="0.4"/><stop offset="1" stop-color="#372611" stop-opacity="0"/></radialGradient><radialGradient cx="507.71335" cy="357.6952" r="359.60961" gradientUnits="userSpaceOnUse" id="color-3"><stop offset="0" stop-color="#381f11" stop-opacity="0.4"/><stop offset="1" stop-color="#381f11" stop-opacity="0"/></radialGradient></defs><g transform="translate(670.21458,699.93992)"><g stroke-miterlimit="10"><path d="M-118.60001,445v-530h788.13754v530z" fill="#272d2d" stroke="#000000" stroke-width="2" stroke-linecap="butt"/><path d="M186.60001,-21.60001v188h84v212" fill="none" stroke="#22242b" stroke-width="2" stroke-linecap="round"/><path d="M457.60001,-41.60001v92h108v231h-210v149" fill="none" stroke="#22242b" stroke-width="2" stroke-linecap="round"/><path d="M-143.29999,66.48648h184.9v139.91351h112v198" fill="none" stroke="#22242b" stroke-width="2" stroke-linecap="round"/><path d="M632.97628,-32.61262v234.23423h34.53453v198.1982h-175.67568v70.57057" fill="none" stroke="#22242b" stroke-width="2" stroke-linecap="round"/><path d="M1007.86351,437.6051c0,152.9978 -161.00271,277.02703 -359.60961,277.02703c-198.6069,0 -671.92192,-119.52472 -671.92192,-272.52252c0,-152.9978 467.30901,-553.13062 665.91592,-553.13062c198.6069,0 365.61562,395.62831 365.61562,548.62612z" fill="url(#color-1)" stroke="none" stroke-width="0" stroke-linecap="butt"/><path d="M810.86649,85.92343c0,152.9978 -275.71742,357.23725 -474.32432,357.23725c-198.6069,0 -1006.75675,-436.97218 -1006.75675,-589.96998c0,-152.9978 467.30901,-553.13062 665.91592,-553.13062c198.6069,0 815.16516,390.79348 815.16516,543.79129z" fill="url(#color-2)" stroke="none" stroke-width="0" stroke-linecap="butt"/><path d="M1316.8725,594.93243c0,152.9978 -275.71741,357.23725 -474.32431,357.23725c-198.6069,0 -1006.75676,-436.97217 -1006.75676,-589.96997c0,-152.9978 467.30901,-553.13062 665.91592,-553.13062c198.6069,0 815.16516,390.79348 815.16516,543.79129z" fill="url(#color-3)" stroke="none" stroke-width="0" stroke-linecap="butt"/></g></g></svg>