<svg version="1.1" xmlns="http://www.w3.org/2000/svg" xmlns:xlink="http://www.w3.org/1999/xlink" width="3771.81722" height="3647.1926" viewBox="0,0,3771.81722,3647.1926"><g transform="translate(1645.90861,1644.34705)"><g stroke-miterlimit="10"><path d="M235.60049,1827.16988v-3294.33974h8.79903v3294.33974z" fill="none" stroke-opacity="0.43529" stroke="#ff0000" stroke-width="10"/><path d="M-1407.16987,175.6005h3294.33974v8.79903h-3294.33974z" fill="none" stroke-opacity="0.43529" stroke="#ff0000" stroke-width="10"/><path d="M-927.83591,1341.61407l2329.44997,-2329.44997l6.22185,6.22185l-2329.44997,2329.44997z" fill="none" stroke-opacity="0.43529" stroke="#ff0000" stroke-width="10"/><path d="M-921.61406,-987.8359l2329.44997,2329.44997l-6.22185,6.22185l-2329.44997,-2329.44997z" fill="none" stroke-opacity="0.43529" stroke="#ff0000" stroke-width="10"/><path d="M-3.13825,1649.9927v-3294.33974h8.79903v3294.33974z" fill-opacity="0.51765" fill="#ff0000" stroke="none" stroke-width="0"/><path d="M-1645.90861,-1.57668h3294.33974v8.79903h-3294.33974z" fill-opacity="0.51765" fill="#ff0000" stroke="none" stroke-width="0"/><path d="M-1166.57465,1164.43689l2329.44997,-2329.44997l6.22185,6.22185l-2329.44997,2329.44997z" fill-opacity="0.51765" fill="#ff0000" stroke="none" stroke-width="0"/><path d="M-1160.3528,-1165.01308l2329.44997,2329.44997l-6.22185,6.22185l-2329.44997,-2329.44997z" fill-opacity="0.51765" fill="#ff0000" stroke="none" stroke-width="0"/><path d="M474.33923,2002.84556v-3294.33974h8.79903v3294.33974z" fill-opacity="0.51765" fill="#ff0000" stroke="none" stroke-width="0"/><path d="M-1168.43113,351.27618h3294.33974v8.79903h-3294.33974z" fill-opacity="0.51765" fill="#ff0000" stroke="none" stroke-width="0"/><path d="M-689.09717,1517.28975l2329.44997,-2329.44997l6.22185,6.22185l-2329.44997,2329.44997z" fill-opacity="0.51765" fill="#ff0000" stroke="none" stroke-width="0"/><path d="M-682.87532,-812.16022l2329.44997,2329.44997l-6.22185,6.22185l-2329.44997,-2329.44997z" fill-opacity="0.51765" fill="#ff0000" stroke="none" stroke-width="0"/></g></g></svg>