<svg version="1.1" xmlns="http://www.w3.org/2000/svg" xmlns:xlink="http://www.w3.org/1999/xlink" width="4260.2932" height="4021.55446" viewBox="0,0,4260.2932,4021.55446"><g transform="translate(1887.89435,1824.77122)"><g fill="none" stroke-opacity="0.32941" stroke="#ff0000" stroke-width="12.5" stroke-miterlimit="10"><path d="M235.60049,1827.16987v-3294.33974h8.79903v3294.33974z"/><path d="M-1407.16987,175.60049h3294.33974v8.79903h-3294.33974z"/><path d="M-927.83591,1341.61406l2329.44997,-2329.44997l6.22185,6.22185l-2329.44997,2329.44997z"/><path d="M-921.61406,-987.83591l2329.44997,2329.44997l-6.22185,6.22185l-2329.44997,-2329.44997z"/><path d="M-3.13825,1649.99269v-3294.33974h8.79903v3294.33974z"/><path d="M-1645.90861,-1.57669h3294.33974v8.79903h-3294.33974z"/><path d="M-1166.57465,1164.43688l2329.44997,-2329.44997l6.22185,6.22185l-2329.44997,2329.44997z"/><path d="M-1160.3528,-1165.01309l2329.44997,2329.44997l-6.22185,6.22185l-2329.44997,-2329.44997z"/><path d="M474.33923,2002.84555v-3294.33974h8.79903v3294.33974z"/><path d="M-1168.43113,351.27617h3294.33974v8.79903h-3294.33974z"/><path d="M-689.09717,1517.28974l2329.44997,-2329.44997l6.22185,6.22185l-2329.44997,2329.44997z"/><path d="M-682.87532,-812.16023l2329.44997,2329.44997l-6.22185,6.22185l-2329.44997,-2329.44997z"/><path d="M475.84073,1652.9957v-3294.33974h8.79903v3294.33974z"/><path d="M-1166.92963,1.42632h3294.33974v8.79903h-3294.33974z"/><path d="M-687.59567,1167.43989l2329.44997,-2329.44997l6.22185,6.22185l-2329.44997,2329.44997z"/><path d="M-681.37382,-1162.01008l2329.44997,2329.44997l-6.22185,6.22185l-2329.44997,-2329.44997z"/><path d="M237.10199,1475.81852v-3294.33974h8.79903v3294.33974z"/><path d="M-1405.66837,-175.75086h3294.33974v8.79903h-3294.33974z"/><path d="M-926.33441,990.26271l2329.44997,-2329.44997l6.22185,6.22185l-2329.44997,2329.44997z"/><path d="M-920.11256,-1339.18726l2329.44997,2329.44997l-6.22185,6.22185l-2329.44997,-2329.44997z"/><path d="M714.57947,1828.67138v-3294.33974h8.79903v3294.33974z"/><path d="M-928.19089,177.102h3294.33974v8.79903h-3294.33974z"/><path d="M-448.85693,1343.11557l2329.44997,-2329.44997l6.22185,6.22185l-2329.44997,2329.44997z"/><path d="M-442.63508,-986.3344l2329.44997,2329.44997l-6.22185,6.22185l-2329.44997,-2329.44997z"/><path d="M1.36626,1996.83954v-3294.33974h8.79903v3294.33974z"/><path d="M-1641.4041,345.27016h3294.33974v8.79903h-3294.33974z"/><path d="M-1162.07014,1511.28373l2329.44997,-2329.44997l6.22185,6.22185l-2329.44997,2329.44997z"/><path d="M-1155.84829,-818.16624l2329.44997,2329.44997l-6.22185,6.22185l-2329.44997,-2329.44997z"/><path d="M-237.37248,1819.66236v-3294.33974h8.79903v3294.33974z"/><path d="M-1880.14284,168.09298h3294.33974v8.79903h-3294.33974z"/><path d="M-1400.80888,1334.10655l2329.44997,-2329.44997l6.22185,6.22185l-2329.44997,2329.44997z"/><path d="M-1394.58703,-995.34342l2329.44997,2329.44997l-6.22185,6.22185l-2329.44997,-2329.44997z"/><path d="M240.105,2172.51522v-3294.33974h8.79903v3294.33974z"/><path d="M-1402.66536,520.94584h3294.33974v8.79903h-3294.33974z"/><path d="M-923.3314,1686.95941l2329.44997,-2329.44997l6.22185,6.22185l-2329.44997,2329.44997z"/><path d="M-917.10955,-642.49056l2329.44997,2329.44997l-6.22185,6.22185l-2329.44997,-2329.44997z"/><path d="M-0.13525,1660.50321v-3294.33974h8.79903v3294.33974z"/><path d="M-1642.90561,8.93383h3294.33974v8.79903h-3294.33974z"/><path d="M-1163.57165,1174.9474l2329.44997,-2329.44997l6.22185,6.22185l-2329.44997,2329.44997z"/><path d="M-1157.3498,-1154.50257l2329.44997,2329.44997l-6.22185,6.22185l-2329.44997,-2329.44997z"/><path d="M-238.87399,1483.32603v-3294.33974h8.79903v3294.33974z"/><path d="M-1881.64435,-168.24335h3294.33974v8.79903h-3294.33974z"/><path d="M-1402.31039,997.77022l2329.44997,-2329.44997l6.22185,6.22185l-2329.44997,2329.44997z"/><path d="M-1396.08854,-1331.67975l2329.44997,2329.44997l-6.22185,6.22185l-2329.44997,-2329.44997z"/><path d="M238.60349,1836.17889v-3294.33974h8.79903v3294.33974z"/><path d="M-1404.16687,184.60951h3294.33974v8.79903h-3294.33974z"/><path d="M-924.83291,1350.62308l2329.44997,-2329.44997l6.22185,6.22185l-2329.44997,2329.44997z"/><path d="M-918.61106,-978.82689l2329.44997,2329.44997l-6.22185,6.22185l-2329.44997,-2329.44997z"/><path d="M472.83773,2014.85756v-3294.33974h8.79903v3294.33974z"/><path d="M-1169.93263,363.28818h3294.33974v8.79903h-3294.33974z"/><path d="M-690.59867,1529.30175l2329.44997,-2329.44997l6.22185,6.22185l-2329.44997,2329.44997z"/><path d="M-684.37682,-800.14822l2329.44997,2329.44997l-6.22185,6.22185l-2329.44997,-2329.44997z"/><path d="M234.09899,1837.68038v-3294.33974h8.79903v3294.33974z"/><path d="M-1408.67137,186.111h3294.33974v8.79903h-3294.33974z"/><path d="M-929.33741,1352.12457l2329.44997,-2329.44997l6.22185,6.22185l-2329.44997,2329.44997z"/><path d="M-923.11556,-977.3254l2329.44997,2329.44997l-6.22185,6.22185l-2329.44997,-2329.44997z"/><path d="M711.57647,2190.53324v-3294.33974h8.79903v3294.33974z"/><path d="M-931.19389,538.96386h3294.33974v8.79903h-3294.33974z"/><path d="M-451.85993,1704.97743l2329.44997,-2329.44997l6.22185,6.22185l-2329.44997,2329.44997z"/><path d="M-445.63808,-624.47254l2329.44997,2329.44997l-6.22185,6.22185l-2329.44997,-2329.44997z"/></g></g></svg>