<svg version="1.1" xmlns="http://www.w3.org/2000/svg" xmlns:xlink="http://www.w3.org/1999/xlink" width="9.4" height="9.2" viewBox="0,0,9.4,9.2"><g transform="translate(-315.3,-175.4)"><g stroke-miterlimit="10"><path d="M315.8,184.1v-8.2h8.4v8.2z" fill="#000000" stroke="#ffffff" stroke-width="1"/><path d="M317.5448,179.7563c0,-0.27614 0.22386,-0.5 0.5,-0.5c0.27614,0 0.5,0.22386 0.5,0.5c0,0.27614 -0.22386,0.5 -0.5,0.5c-0.27614,0 -0.5,-0.22386 -0.5,-0.5z" fill="#ffffff" stroke="none" stroke-width="0.5"/><path d="M321.36656,179.7563c0,-0.27614 0.22386,-0.5 0.5,-0.5c0.27614,0 0.5,0.22386 0.5,0.5c0,0.27614 -0.22386,0.5 -0.5,0.5c-0.27614,0 -0.5,-0.22386 -0.5,-0.5z" fill="#ffffff" stroke="none" stroke-width="0.5"/><path d="M318.9494,181.8795c0,-0.27614 0.46637,-0.5 1.04167,-0.5c0.57529,0 1.04167,0.22386 1.04167,0.5c0,0.27614 -0.46638,0.5 -1.04167,0.5c-0.57529,0 -1.04167,-0.22386 -1.04167,-0.5z" fill="#ffffff" stroke="none" stroke-width="0.5"/></g></g></svg>