<svg version="1.1" xmlns="http://www.w3.org/2000/svg" xmlns:xlink="http://www.w3.org/1999/xlink" width="663.08408" height="421" viewBox="0,0,663.08408,421"><g transform="translate(10.04054,30.5)"><g stroke="none" stroke-miterlimit="10"><path d="M-10.04054,390.5v-421h663.08408v421z" fill="#000000" stroke-width="0"/><text transform="translate(115.33334,141.91667) scale(1.77844,1.77844)" font-size="40" xml:space="preserve" fill="#ffffff" stroke-width="1" font-family="Sans Serif" font-weight="normal" text-anchor="start"><tspan x="0" dy="0">GAME OVER</tspan></text><path d="M534.27268,58.72733c-1.06066,-1.06066 0,-2.12132 0,-2.12132l0.71902,-0.61016c0.42699,-0.79661 0.65239,-1.74039 1.28098,-2.38984c0.07651,-0.07905 0.16253,-0.14507 0.25527,-0.20188c-0.52895,0.27542 -1.11249,0.53951 -1.84998,0.72241c-1.29413,0.32094 -2.71039,-0.33864 -4,0c-0.72091,0.18931 -1.27513,0.82646 -2,1c-1.71208,0.40988 -3.28179,-0.34965 -5,0c-3.23201,0.65771 -6.71489,2.17726 -9.99993,2.99998c-2.17711,0.54525 -8.56915,1.97993 -9.79028,-1.05946c-0.49253,-1.22591 1.48581,-2.18498 2.22871,-3.27747c1.02283,-1.98295 0.39227,-2.98824 0.71686,-5.12293c0.09549,-0.62799 1.07428,-1.41606 0.58012,-1.81517c-0.48641,-0.39285 -1.00166,0.77736 -1.58433,1.00412c-2.70383,1.05224 -5.79979,1.48741 -8.57727,2.38439c-6.42165,2.07386 -13.74892,2.4834 -19.95789,5.21722c-3.46787,1.52691 -4.95032,2.68548 -8.96064,2.70945c0,0 -1.5,0 -1.5,-1.5c0,-1.5 1.5,-1.5 1.5,-1.5c3.73788,0.02623 4.49429,-1.04636 7.76121,-2.45925c0.31323,-0.13547 5.25407,-1.31525 5.8187,-1.48073c5.77474,-1.69244 11.53276,-3.10521 17.31439,-4.77811c1.93618,-0.56023 3.87125,-1.15929 5.85796,-1.49937c1.37787,-0.23586 3.06696,-1.32919 4.16762,-0.46738c1.10882,0.8682 0.44861,2.7827 0.58012,4.18483c0.25653,2.73493 -0.07774,4.42126 -1.28314,6.87707c-0.59043,0.24084 -1.42368,0.18795 -1.77129,0.72253c-0.28817,0.44316 1.02228,-0.27381 1.54206,-0.37c0.88881,-0.1645 1.78612,-0.27937 2.68032,-0.41146c2.67445,-0.39504 5.15658,-1.29879 7.81777,-1.83616c1.44154,-0.29109 2.72678,-1.15743 4.16965,-1.44185c1.6352,-0.32234 3.38799,0.4233 5,0c0.72091,-0.18931 1.27513,-0.82646 2,-1c1.29669,-0.31043 2.70734,0.3268 4,0c2.4761,-0.62598 3.57889,-1.99279 6.34463,-2.04013h2c0.82843,0 1.5,0.67157 1.5,1.5c0,0.5988 -0.35088,1.11566 -0.85825,1.35617l-0.81761,0.40881c-0.54342,0.80428 -1.08125,1.61345 -1.76348,2.29568c-0.88838,0.88838 -2.20674,1.46298 -2.71902,2.61016l-1.28098,1.38984c0,0 -1.06066,1.06066 -2.12132,0zM538.37899,52.48034c-0.5868,0.21769 -1.09699,0.52092 -1.65673,0.82102c0.51315,-0.23586 1.15321,-0.29813 1.55043,-0.69535c0.03901,-0.03901 0.07424,-0.08107 0.1063,-0.12567z" fill="#ffffff" stroke-width="0.5"/><path d="M102.95196,77.03317c-1.3665,0.61861 -1.98511,-0.74789 -1.98511,-0.74789l-0.4887,-1.07953c-1.14304,-2.52576 -1.97021,-5.65166 -3.60291,-7.91662c-1.57829,-2.18949 -5.85272,-4.56837 -5.98052,-7.60303c-0.23661,-5.61829 3.76296,-4.69139 7.43863,-4.51943c0.93151,0.04358 1.9844,-0.24807 2.7886,0.22402c0.64279,0.37734 0.66667,1.33333 1,2c3.26112,-0.42962 5.56782,2.04965 8.55603,2.8161c1.61441,0.41408 3.36403,-0.31838 5,0c0.73163,0.14238 1.2769,0.81922 2,1c0.64676,0.16169 1.35324,-0.16169 2,0c0.8043,0.20107 2.51634,1.58652 3.59471,1.39921c0.23892,-0.0415 -0.28876,-0.39191 -0.40192,-0.60639c-0.35251,-0.66813 -0.81024,-1.30418 -0.99287,-2.0372c-0.41379,-1.66082 0.78918,-3.95159 -0.46767,-5.11344c-0.45719,-0.42264 -1.36372,0.46229 -1.86548,0.09367c-0.48512,-0.3564 -2.16964,-3.83083 -2.55304,-4.60516c-0.74527,-1.50515 -2.13397,-2.60985 -2.99518,-4.0518c-0.71276,-1.1934 -1.58894,-5.26801 -1.8854,-6.4886c3.00393,-0.27754 6.59809,-0.21088 9.56685,0.40971c3.03915,0.63531 5.84059,3.32115 8.66988,4.5055c0.97922,0.4099 2.1215,0.41377 3.04195,0.94259c2.44938,1.40723 4.61446,4.03961 6.82061,5.79492c1.18194,0.94041 2.98927,0.44714 4.46756,0.75699c0.21025,0.04407 4.03893,1.98503 4.3767,2.12264c2.33464,0.95113 3.84762,0.83723 6.27867,0.83723c0,0 1.5,0 1.5,1.5c0,1.5 -1.5,1.5 -1.5,1.5c-2.83093,0 -4.66701,0.0213 -7.41343,-1.06013c-1.3652,-0.53756 -2.48952,-1.7074 -3.9312,-1.97999c-1.85721,-0.35117 -3.9959,-0.14228 -5.53244,-1.24301c-2.21686,-1.58809 -4.18735,-4.26899 -6.55892,-5.62623c-2.15469,-1.23311 -4.96184,-2.06084 -7.25981,-3.26178c-1.21113,-0.63295 -2.30605,-1.61519 -3.64882,-1.86898c-1.87403,-0.3542 -3.91778,0.37618 -5.46462,-0.61593c0.39812,0.68949 0.63769,1.55635 1.04343,2.22913c0.90717,1.50422 2.31635,2.68773 3.10746,4.2561c0.554,1.0983 0.3813,2.78038 1.44696,3.39484c0.61697,0.35575 1.66766,-0.44416 2.13452,0.09367c1.97516,2.27539 0.89978,4.234 1.5145,6.68423c0.36178,1.44202 2.76027,3.8725 0.62305,5.55874c-3.26729,2.57785 -4.03703,-0.00872 -6.40529,-0.60079c-0.64676,-0.16169 -1.35324,0.16169 -2,0c-0.7231,-0.18078 -1.27,-0.84948 -2,-1c-1.54693,-0.31896 -3.43916,0.38278 -5,0c-3.38627,-0.83044 -5.83957,-2.90049 -9.44397,-3.1839c-0.33333,-0.66667 -0.41885,-1.53328 -1,-2c-0.32018,-0.25713 -0.80175,0.19545 -1.2114,0.22402c-1.18524,0.08268 -5.19869,-1.40019 -4.45874,1.17267c0.69753,2.42535 4.04431,4.24973 5.43832,6.20117c1.75551,2.4575 2.66062,5.69509 3.89822,8.42802l0.4887,1.07953c0,0 0.61861,1.3665 -0.74789,1.98511z" fill="#ffffff" stroke-width="0.5"/><path d="M100.394,153.60601c1.06066,1.06066 0,2.12132 0,2.12132l-0.87868,0.87868c-0.66656,0.66126 -1.41904,1.24593 -1.99967,1.98378c-0.54579,0.69357 -0.89229,1.52311 -1.35258,2.27615c-0.03223,0.05273 -2.17038,2.94414 -1.76907,3.74007c0.15563,0.30865 0.59769,-0.38678 0.93934,-0.43934c0.54553,-0.08393 1.12025,0.17541 1.65537,0.04013c1.44524,-0.36537 2.54109,-1.6937 4,-2c0.97866,-0.20547 2.01942,0.19612 3,0c1.50427,-0.30085 2.98523,-1.35789 4.48461,-1.03358c1.35389,0.29284 3.37308,0.13782 3.90691,1.41603c0.53589,1.28314 -1.16125,2.52709 -1.73017,3.79593c-1.53324,3.41955 -2.70269,6.4239 -4.9634,9.33975c6.93692,-2.76137 13.9116,-5.36665 20.60929,-8.71661c2.88832,-1.44416 4.97448,-2.359 8.07377,-2.90505c1.0831,-0.19083 2.0935,-1.03638 3.18132,-0.87462c1.49456,0.22224 3.37565,0.62397 4.08937,1.95577c0.4432,0.827 -1.29229,5.07797 -1.80019,6.25392c-0.31577,0.7311 -0.67479,1.44277 -1.00818,2.16601c-0.08882,0.19269 -0.37785,0.75708 -0.25843,0.58171c0.41486,-0.60924 0.50694,-1.52712 1.14886,-1.88935c2.14881,-1.21254 5.53669,0.18561 7.91477,-0.95872c2.27578,-1.09511 4.08225,-3.80813 6.24528,-5.0679c0.17913,-0.10433 5.61454,-1.90578 5.97647,-2.02642c0,0 1.42302,-0.47434 1.89737,0.94868c0.47434,1.42302 -0.94868,1.89737 -0.94868,1.89737c-1.79918,0.59973 -3.77509,0.80332 -5.40773,1.76831c-2.20269,1.30192 -4.01407,4.03793 -6.37052,5.13737c-2.51258,1.17229 -5.89052,-0.00024 -8.08523,1.04128c-1.06827,0.50696 -1.7056,2.40382 -2.85114,2.11065c-4.50345,-1.15252 -1.16005,-6.94406 -0.1682,-8.99657c0.2852,-0.59018 1.16334,-1.05942 0.99877,-1.6939c-0.12685,-0.48905 -0.99831,-0.30535 -1.49801,-0.23082c-0.8909,0.13289 -1.68418,0.66991 -2.56921,0.8375c-2.8289,0.53569 -4.52962,1.28348 -7.21881,2.62808c-8.10349,4.05043 -16.58727,7.17103 -25.02141,10.44817l-0.28284,-0.08528v0.11219h-2c-0.82843,0 -1.5,-0.67157 -1.5,-1.5c0,-0.5988 0.35088,-1.11566 0.85825,-1.35617l1.6958,-0.8479c1.29115,-1.35789 2.5503,-2.80427 3.47526,-4.24613c1.37708,-2.14664 1.58759,-5.25277 3.15398,-7.2683c0.40832,-0.5254 1.45241,-0.54709 1.59803,-1.19637c0.10787,-0.48098 -0.93233,0.34593 -1.42129,0.40833c-1.20549,0.15383 -2.32372,0.72809 -3.51539,0.96642c-0.98058,0.19612 -2.01734,-0.18539 -3,0c-2.47458,0.46686 -3.50356,2.24996 -6.34463,2.04013c-1.02788,-0.07591 -2.46784,0.40379 -3.06066,-0.43934c-2.80937,-3.99557 2.65669,-9.76055 5.12132,-12.24264l0.87868,-0.87868c0,0 1.06066,-1.06066 2.12132,0z" fill="#ffffff" stroke-width="0.5"/><path d="M433.2663,178.61243c1.05424,-1.06704 2.12128,-0.0128 2.12128,-0.0128l0.75637,1.01367c2.915,0.81372 5.90449,0.92659 8.80438,1.69222c4.80809,1.26944 9.49588,3.73266 13.91108,5.95642c4.86831,1.24154 9.3512,2.58528 13.96284,4.5907c3.35826,1.46038 7.00763,3.88767 10.69437,4.32527c1.9254,0.22854 3.89143,-0.24064 5.81673,-0.01124c0.33935,0.04043 0.80001,0.78874 0.9131,0.46625c0.17894,-0.51027 -0.41133,-1.00448 -0.54019,-1.52964c-0.43507,-1.77316 -0.74812,-3.61143 -1.54107,-5.256c-1.7535,-3.63674 -3.3647,-7.07752 -5.30503,-10.53248l-1.58747,-1.58747c-0.27145,-0.27145 -0.43934,-0.64645 -0.43934,-1.06066c0,-0.82843 0.67157,-1.5 1.5,-1.5h2v0.23186l0.57403,-0.11768c0.66667,0.66667 1.16073,1.57045 2,2c0.52174,0.26704 1.19091,-0.2305 1.75664,-0.07728c1.94083,0.52565 3.62377,1.77437 5.53608,2.39579c2.88314,0.93691 5.88542,1.52299 8.70728,2.68149c1.64787,0.67652 2.88076,2.09645 4.30304,3.16896c2.98201,2.24866 6.8736,2.9331 9.95939,4.97174c0.55064,0.36378 3.79329,3.39936 4.34212,3.79635c1.82377,1.31918 3.97171,2.17648 5.85707,3.36512c-1.71631,-2.77258 -3.42348,-5.36705 -4.25416,-8.66825c-1.08742,-4.48722 -3.16799,-9.03256 -6.31595,-12.49413c-0.9215,-1.0133 -2.99412,-1.47788 -2.96263,-2.84718c0.06215,-2.70266 6.82095,-2.84773 8.36888,-3.12564c6.80505,-1.22176 13.19939,-1.28115 20.12823,-1.28115c1.76381,0 3.7319,-0.22078 5.63228,-0.18945c-0.22469,-0.07539 -0.44707,-0.15534 -0.66549,-0.24296c-0.89825,-0.36035 -1.47535,-1.35085 -2.40146,-1.63195c-1.00147,-0.30397 -2.16724,0.33791 -3.13935,-0.04982c-0.87572,-0.34928 -1.12575,-1.64705 -2,-2c-0.85669,-0.34585 -1.86367,0.25009 -2.7706,0.07405c-1.23669,-0.24003 -2.39597,-0.9904 -3.65537,-0.95987c0,0 -1.5,0 -1.5,-1.5c0,-1.5 1.5,-1.5 1.5,-1.5c1.48892,0.02548 2.88594,0.74053 4.34463,1.04013c1.05473,0.21663 2.2285,-0.32292 3.2294,0.07405c0.8764,0.34759 1.12499,1.64893 2,2c0.88511,0.35512 1.94768,-0.32555 2.86065,-0.04982c0.98816,0.29844 1.63206,1.31382 2.59084,1.69625c0.78217,0.31199 1.72507,0.01555 2.50385,0.3359c1.06104,0.43645 1.92206,1.25333 2.8831,1.87999l0.05864,0.09007l0.02124,-0.02391l1.49821,1.33089c0.31235,0.27489 0.50945,0.67765 0.50945,1.12644c0,0.82843 -0.67157,1.5 -1.5,1.5h-3v-0.29682c-7.58227,0.69968 -15.21797,-0.65716 -22.81673,0.28558c-2.92227,0.36255 -5.85334,1.36743 -8.79406,1.78464c-0.57413,0.08145 -1.15383,0.18108 -1.73289,0.17638c1.1509,0.57187 2.10821,1.69955 2.8591,2.73871c2.49547,3.45347 4.16088,7.22652 5.1799,11.34578c0.90525,3.81697 3.31114,6.62661 5.21282,10.0309l1.23234,1.46047c0.22415,0.26212 0.35952,0.60243 0.35952,0.97436c0,0.82843 -0.67157,1.5 -1.5,1.5c-0.13723,0 -0.27016,-0.01843 -0.39644,-0.05294l-2.87779,-0.71945l0.00512,-0.02048c-0.0642,-0.0122 -0.12828,-0.02536 -0.19223,-0.03956c-4.78063,-1.06146 -8.52097,-5.86022 -12.37512,-8.42244c-3.09971,-2.06067 -7.01054,-2.76721 -10.04061,-5.02826c-1.24398,-0.92826 -2.25196,-2.26436 -3.69696,-2.83104c-2.76937,-1.08605 -5.67802,-1.68072 -8.48954,-2.60102c-1.82349,-0.59689 -3.41427,-1.82326 -5.2671,-2.3217c-0.29815,-0.08021 -0.6178,-0.05136 -0.93766,-0.01292c1.06652,1.81129 1.67297,4.08953 2.3911,5.90934c0.74941,1.89907 2.05747,3.57153 2.63086,5.53094c0.38725,1.3233 1.22433,5.97017 0.33326,7.1433c-0.62944,0.82869 -2.0493,0.38677 -3.0869,0.46625c-0.14243,0.01091 -6.1581,-0.00805 -6.18327,-0.01124c-4.03464,-0.51171 -7.8441,-2.95147 -11.52413,-4.55164c-4.5659,-1.98536 -9.00564,-3.27281 -13.81866,-4.5324c-4.33695,-2.15423 -8.91385,-4.62148 -13.62477,-5.86526c-2.90479,-0.76693 -5.91609,-0.8915 -8.8424,-1.70253l-2.061,-1.76989c0,0 -1.06704,-1.05424 -0.0128,-2.12128z" fill="#ffffff" stroke-width="0.5"/><text transform="translate(104.47002,224.76875) scale(0.5,0.5)" font-size="40" xml:space="preserve" fill="#ffffff" stroke-width="1" font-family="Sans Serif" font-weight="normal" text-anchor="start"><tspan x="0" dy="0">you suck lmao</tspan><tspan x="0" dy="48px">(the game will restart once the song finishes,</tspan><tspan x="0" dy="48px">if you press z or touch the screen)</tspan><tspan x="0" dy="48px"> </tspan><tspan x="0" dy="48px">did you know that this screen has a 1/10</tspan><tspan x="0" dy="48px">chance of appearing</tspan></text></g></g></svg>