<svg version="1.1" xmlns="http://www.w3.org/2000/svg" xmlns:xlink="http://www.w3.org/1999/xlink" width="3787.81722" height="3663.1926" viewBox="0,0,3787.81722,3663.1926"><g transform="translate(1653.90861,1652.34705)"><g fill="none" stroke-opacity="0.35294" stroke="#ff0000" stroke-width="16" stroke-miterlimit="10"><path d="M235.60049,1827.16987v-3294.33974h8.79903v3294.33974z"/><path d="M-1407.16987,175.60049h3294.33974v8.79903h-3294.33974z"/><path d="M-927.83591,1341.61406l2329.44997,-2329.44997l6.22185,6.22185l-2329.44997,2329.44997z"/><path d="M-921.61406,-987.83591l2329.44997,2329.44997l-6.22185,6.22185l-2329.44997,-2329.44997z"/><path d="M-3.13825,1649.99269v-3294.33974h8.79903v3294.33974z"/><path d="M-1645.90861,-1.57669h3294.33974v8.79903h-3294.33974z"/><path d="M-1166.57465,1164.43688l2329.44997,-2329.44997l6.22185,6.22185l-2329.44997,2329.44997z"/><path d="M-1160.3528,-1165.01309l2329.44997,2329.44997l-6.22185,6.22185l-2329.44997,-2329.44997z"/><path d="M474.33923,2002.84555v-3294.33974h8.79903v3294.33974z"/><path d="M-1168.43113,351.27617h3294.33974v8.79903h-3294.33974z"/><path d="M-689.09717,1517.28974l2329.44997,-2329.44997l6.22185,6.22185l-2329.44997,2329.44997z"/><path d="M-682.87532,-812.16023l2329.44997,2329.44997l-6.22185,6.22185l-2329.44997,-2329.44997z"/></g></g></svg>